<mxfile host="app.diagrams.net" modified="2021-01-15T07:36:54.730Z" agent="5.0 (Windows NT 10.0; Win64; x64) AppleWebKit/537.36 (KHTML, like Gecko) Chrome/87.0.4280.141 Safari/537.36" etag="AmLILDLYYuQk7ont0OWg" version="14.1.4" type="github">
  <diagram id="YZLy9WDs16xiBAJczIbt" name="Page-1">
    <mxGraphModel dx="4348" dy="831" grid="1" gridSize="10" guides="1" tooltips="1" connect="1" arrows="1" fold="1" page="1" pageScale="1" pageWidth="827" pageHeight="1169" math="0" shadow="0">
      <root>
        <mxCell id="0" />
        <mxCell id="1" parent="0" />
        <mxCell id="zRDqNAvNbwnAnqOmAzcQ-21" value="Supports Stability" style="edgeStyle=orthogonalEdgeStyle;rounded=0;orthogonalLoop=1;jettySize=auto;html=1;fontSize=12;exitX=1;exitY=0.5;exitDx=0;exitDy=0;" edge="1" parent="1" source="zRDqNAvNbwnAnqOmAzcQ-5" target="zRDqNAvNbwnAnqOmAzcQ-8">
          <mxGeometry relative="1" as="geometry">
            <Array as="points">
              <mxPoint x="240" y="240" />
              <mxPoint x="240" y="100" />
            </Array>
          </mxGeometry>
        </mxCell>
        <mxCell id="zRDqNAvNbwnAnqOmAzcQ-22" value="Attracts &amp;amp; provides Liquidity &lt;br&gt;eventually be used as currency" style="edgeStyle=orthogonalEdgeStyle;rounded=0;orthogonalLoop=1;jettySize=auto;html=1;fontSize=12;exitX=1;exitY=0.5;exitDx=0;exitDy=0;exitPerimeter=0;" edge="1" parent="1" source="zRDqNAvNbwnAnqOmAzcQ-8" target="zRDqNAvNbwnAnqOmAzcQ-5">
          <mxGeometry relative="1" as="geometry">
            <mxPoint x="580" y="110" as="sourcePoint" />
            <Array as="points">
              <mxPoint x="660" y="100" />
              <mxPoint x="660" y="360" />
            </Array>
          </mxGeometry>
        </mxCell>
        <mxCell id="zRDqNAvNbwnAnqOmAzcQ-8" value="Stable Infinite Liquidity" style="shape=tape;whiteSpace=wrap;html=1;fontSize=20;" vertex="1" parent="1">
          <mxGeometry x="305" width="216" height="200" as="geometry" />
        </mxCell>
        <mxCell id="zRDqNAvNbwnAnqOmAzcQ-10" style="edgeStyle=orthogonalEdgeStyle;rounded=0;orthogonalLoop=1;jettySize=auto;html=1;fontSize=20;" edge="1" parent="1" source="zRDqNAvNbwnAnqOmAzcQ-9" target="zRDqNAvNbwnAnqOmAzcQ-5">
          <mxGeometry relative="1" as="geometry">
            <Array as="points">
              <mxPoint x="-40" y="280" />
            </Array>
          </mxGeometry>
        </mxCell>
        <mxCell id="zRDqNAvNbwnAnqOmAzcQ-18" value="Provide collateral" style="edgeLabel;html=1;align=center;verticalAlign=middle;resizable=0;points=[];fontSize=12;" vertex="1" connectable="0" parent="zRDqNAvNbwnAnqOmAzcQ-10">
          <mxGeometry x="0.1209" y="3" relative="1" as="geometry">
            <mxPoint as="offset" />
          </mxGeometry>
        </mxCell>
        <mxCell id="zRDqNAvNbwnAnqOmAzcQ-14" value="" style="rounded=0;whiteSpace=wrap;html=1;fontSize=20;" vertex="1" parent="1">
          <mxGeometry x="60" y="400" width="280" height="160" as="geometry" />
        </mxCell>
        <mxCell id="zRDqNAvNbwnAnqOmAzcQ-15" value="DEA&lt;br&gt;&lt;font style=&quot;font-size: 12px&quot;&gt;acts as a liquidity bridge from sealed to non sealed&lt;/font&gt;" style="text;html=1;strokeColor=none;fillColor=none;align=center;verticalAlign=middle;whiteSpace=wrap;rounded=0;fontSize=20;" vertex="1" parent="1">
          <mxGeometry x="130" y="480" width="170" height="20" as="geometry" />
        </mxCell>
        <mxCell id="zRDqNAvNbwnAnqOmAzcQ-19" value="DEUS Treasury bottom as Insurance Fund.&lt;br&gt;Increases over time = Static Price bottom increases.&lt;br&gt;Liquidity supports during big shocks." style="shape=trapezoid;perimeter=trapezoidPerimeter;whiteSpace=wrap;html=1;fixedSize=1;fontSize=12;" vertex="1" parent="1">
          <mxGeometry x="500" y="400" width="360" height="150" as="geometry" />
        </mxCell>
        <mxCell id="zRDqNAvNbwnAnqOmAzcQ-28" value="DEUS" style="text;html=1;strokeColor=none;fillColor=none;align=center;verticalAlign=middle;whiteSpace=wrap;rounded=0;fontSize=20;" vertex="1" parent="1">
          <mxGeometry x="520" y="415" width="320" height="20" as="geometry" />
        </mxCell>
        <mxCell id="zRDqNAvNbwnAnqOmAzcQ-9" value="Vaults&lt;br&gt;&lt;span style=&quot;color: rgb(0 , 0 , 0) ; font-family: &amp;#34;helvetica&amp;#34; ; font-size: 20px ; font-style: normal ; font-weight: 400 ; letter-spacing: normal ; text-align: center ; text-indent: 0px ; text-transform: none ; word-spacing: 0px ; background-color: rgb(248 , 249 , 250) ; display: inline ; float: none&quot;&gt;Sealed World&lt;/span&gt;&lt;br style=&quot;color: rgb(0 , 0 , 0) ; font-family: &amp;#34;helvetica&amp;#34; ; font-size: 20px ; font-style: normal ; font-weight: 400 ; letter-spacing: normal ; text-align: center ; text-indent: 0px ; text-transform: none ; word-spacing: 0px ; background-color: rgb(248 , 249 , 250)&quot;&gt;&lt;span style=&quot;color: rgb(0 , 0 , 0) ; font-family: &amp;#34;helvetica&amp;#34; ; font-size: 20px ; font-style: normal ; font-weight: 400 ; letter-spacing: normal ; text-align: center ; text-indent: 0px ; text-transform: none ; word-spacing: 0px ; background-color: rgb(248 , 249 , 250) ; display: inline ; float: none&quot;&gt;(balancer pools, locked Vault Tokens)&lt;/span&gt;" style="shape=cylinder3;whiteSpace=wrap;html=1;boundedLbl=1;backgroundOutline=1;size=15;fontSize=20;" vertex="1" parent="1">
          <mxGeometry x="-130" y="390" width="230" height="180" as="geometry" />
        </mxCell>
        <mxCell id="zRDqNAvNbwnAnqOmAzcQ-30" value="earn trading fees &amp;amp; traders losses" style="edgeStyle=orthogonalEdgeStyle;rounded=0;orthogonalLoop=1;jettySize=auto;html=1;fontSize=12;" edge="1" parent="1" source="zRDqNAvNbwnAnqOmAzcQ-5" target="zRDqNAvNbwnAnqOmAzcQ-9">
          <mxGeometry relative="1" as="geometry">
            <Array as="points">
              <mxPoint x="40" y="320" />
            </Array>
          </mxGeometry>
        </mxCell>
        <mxCell id="zRDqNAvNbwnAnqOmAzcQ-5" value="&lt;font style=&quot;font-size: 20px&quot;&gt;&lt;br&gt;&lt;br&gt;Stock Ecosystem&amp;nbsp;&lt;/font&gt;" style="triangle;whiteSpace=wrap;html=1;direction=north;" vertex="1" parent="1">
          <mxGeometry x="240" y="240" width="360" height="200" as="geometry" />
        </mxCell>
        <mxCell id="zRDqNAvNbwnAnqOmAzcQ-29" value="DEOX" style="text;html=1;strokeColor=none;fillColor=none;align=center;verticalAlign=middle;whiteSpace=wrap;rounded=0;fontSize=20;" vertex="1" parent="1">
          <mxGeometry x="400" y="60" width="120" height="20" as="geometry" />
        </mxCell>
      </root>
    </mxGraphModel>
  </diagram>
</mxfile>
